# xmcd
#
# Track frame offsets:
#	182
#	13877
#	25752
#	37807
#	50997
#	68420
#	78510
#	91485
#	104647
#	118015
#	129997
#	144810
#
# Disc length: 2091 seconds
#
# Revision: 0
# Processed by: cddbd v1.5PL3 Copyright (c) Steve Scherf et al.
# Submitted via: dBpowerAMP V4.0
#
DISCID=9a08290c
DTITLE=Trio Melody Tirol - Hast a bisserl Zeit
DYEAR=1900
DGENRE=Volksmusik
TTITLE0=Hast a bisserl Zeit
TTITLE1=Hast mi vergessen
TTITLE2=Es war dei Apfelstrudel
TTITLE3=I ho di gern
TTITLE4=Schau mich nicht so traurig an
TTITLE5=Kleeblattwalzer
TTITLE6=Grüass di alte hüttn
TTITLE7=Gib mir de Hand
TTITLE8=Alpenswing
TTITLE9=Das Rad der Zeit
TTITLE10=Wenn Kinder draussen spielen
TTITLE11=Gemütlich beim Wein 
EXTD=
EXTT0=
EXTT1=
EXTT2=
EXTT3=
EXTT4=
EXTT5=
EXTT6=
EXTT7=
EXTT8=
EXTT9=
EXTT10=
EXTT11=
PLAYORDER=
